<?xml version="1.0" encoding="UTF-8" standalone="no"?>
<!DOCTYPE svg PUBLIC "-//W3C//DTD SVG 1.1//EN" "http://www.w3.org/Graphics/SVG/1.1/DTD/svg11.dtd">
<svg width="100%" height="100%" viewBox="0 0 224 200" version="1.1" xmlns="http://www.w3.org/2000/svg" xmlns:xlink="http://www.w3.org/1999/xlink" xml:space="preserve" xmlns:serif="http://www.serif.com/" style="fill-rule:evenodd;clip-rule:evenodd;stroke-linejoin:round;stroke-miterlimit:2;">
    <g transform="matrix(1,0,0,1,-58,-96)">
        <path d="M170.103,296L58,271L77,180L170.103,206L170.103,296Z" style="fill:url(#_Linear1);"/>
    </g>
    <g transform="matrix(1,0,0,1,19,0)">
        <path d="M0,40L93.103,0L186.207,40L186.207,160L93.103,200L0,160L0,40Z" style="fill:white;"/>
    </g>
    <g transform="matrix(4,0,0,4,19,0)">
        <path d="M0,10L23.276,21L23.276,50L0,40L0,10Z" style="fill:url(#_Linear2);"/>
    </g>
    <g transform="matrix(-4,0,0,4,205.207,0)">
        <path d="M0,10L23.276,21L23.276,50L0,40L0,10Z" style="fill:rgb(221,112,50);"/>
    </g>
    <g transform="matrix(4,0,0,4,19,0)">
        <path d="M0,10L23.276,21L46.552,10L23.276,0L0,10Z" style="fill:url(#_Linear3);"/>
    </g>
    <defs>
        <linearGradient id="_Linear1" x1="0" y1="0" x2="1" y2="0" gradientUnits="userSpaceOnUse" gradientTransform="matrix(170.103,0,0,116,0,238)"><stop offset="0" style="stop-color:rgb(0,76,109);stop-opacity:0"/><stop offset="0.57" style="stop-color:rgb(0,76,105);stop-opacity:0.07"/><stop offset="1" style="stop-color:rgb(0,74,87);stop-opacity:0.35"/></linearGradient>
        <linearGradient id="_Linear2" x1="0" y1="0" x2="1" y2="0" gradientUnits="userSpaceOnUse" gradientTransform="matrix(11.5,-24,41.2444,19.763,5,42)"><stop offset="0" style="stop-color:rgb(182,86,31);stop-opacity:1"/><stop offset="1" style="stop-color:rgb(218,119,64);stop-opacity:1"/></linearGradient>
        <linearGradient id="_Linear3" x1="0" y1="0" x2="1" y2="0" gradientUnits="userSpaceOnUse" gradientTransform="matrix(46.5517,0,0,21,0,10.5)"><stop offset="0" style="stop-color:rgb(214,110,50);stop-opacity:1"/><stop offset="1" style="stop-color:rgb(233,147,98);stop-opacity:1"/></linearGradient>
    </defs>
</svg>
